<svg id="Capa_1" enable-background="new 0 0 512 512" height="512" viewBox="0 0 512 512" width="512" xmlns="http://www.w3.org/2000/svg"><g><g><g><g><g><path d="m89.288 231.06v128.976c0 30.942 25.084 56.026 56.026 56.026h221.371c30.942 0 56.026-25.084 56.026-56.026v-128.976" fill="#faf7f5"/></g><path d="m422.711 231.06v-46.678h-333.423v46.678" fill="#ccf5fc"/><path d="m411.522 49.874c-18.022-4.767-37.119 4.989-43.843 22.376-2.518 6.512-3.075 13.257-1.982 19.613 2.546 14.796.908 30.011-3.831 44.256l-16.057 48.262h46.945l11.835-35.573c4.676-14.055 13-26.486 23.542-36.892 4.013-3.961 7.176-8.904 9.078-14.62 6.694-20.118-4.868-41.915-25.687-47.422z" fill="#ffad95"/></g><g fill="#a7bdcd"><path d="m462.859 274.355h-40.147v-43.295h40.147c11.955 0 21.647 9.692 21.647 21.647 0 11.956-9.692 21.648-21.647 21.648z"/><path d="m49.141 231.06h40.147v43.295h-40.147c-11.955 0-21.647-9.692-21.647-21.647 0-11.956 9.692-21.648 21.647-21.648z"/></g><path d="m394.842 502h-277.684v-16.737c0-17.132 13.889-31.021 31.021-31.021h215.642c17.132 0 31.021 13.889 31.021 31.021z" fill="#a7bdcd"/><path d="m284.537 425.705c0 15.761-12.776 28.537-28.537 28.537s-28.537-12.776-28.537-28.537c0-21.939 28.537-45.177 28.537-45.177s28.537 23.09 28.537 45.177z" fill="#ff7b79"/><g fill="#ff9c9b"><path d="m341.611 425.705c0 15.761-12.776 28.537-28.537 28.537s-28.537-12.776-28.537-28.537c0-21.939 28.537-45.177 28.537-45.177s28.537 23.09 28.537 45.177z"/><path d="m227.463 425.705c0 15.761-12.776 28.537-28.537 28.537s-28.537-12.776-28.537-28.537c0-21.939 28.537-45.177 28.537-45.177s28.537 23.09 28.537 45.177z"/></g></g><g><path d="m227.948 56.212c0 25.522-28.699 46.212-28.699 46.212s-28.699-20.69-28.699-46.212 28.699-46.212 28.699-46.212 28.699 20.69 28.699 46.212z" fill="#a0e5a5"/></g><g><path d="m304.83 116.766c-18.047 18.047-52.97 12.384-52.97 12.384s-5.663-34.923 12.384-52.97 52.97-12.384 52.97-12.384 5.663 34.923-12.384 52.97z" fill="#b8ecbc"/></g><g><circle cx="123.176" cy="121.214" fill="#ff7b79" r="30.888"/></g></g><g><path d="m261.18 241.06c-4.181 0-7.995-2.71-9.405-6.636-1.406-3.916-.171-8.458 3.064-11.092 3.291-2.679 8.007-2.99 11.617-.758 3.567 2.206 5.415 6.574 4.488 10.669-1.02 4.503-5.139 7.817-9.764 7.817z"/><path d="m462.858 221.06h-30.146v-36.678c0-5.523-4.478-10-10-10h-16.092l7.458-22.417c3.986-11.98 11.078-23.06 21.079-32.933 5.222-5.155 9.213-11.58 11.541-18.58 4.077-12.253 2.893-25.799-3.25-37.163-6.229-11.524-16.659-19.722-29.369-23.083-22.752-6.019-47.233 6.471-55.727 28.437-3.077 7.959-3.945 16.575-2.511 24.917 2.151 12.5.953 26.125-3.464 39.404l-13.78 41.419h-249.309c-5.522 0-10 4.477-10 10v36.678h-30.146c-17.45 0-31.647 14.197-31.647 31.647 0 17.451 14.197 31.647 31.647 31.647h30.146v75.681c0 36.407 29.619 66.026 66.026 66.026h15.077c.06 6.582 1.778 12.775 4.757 18.181h-16.97c-22.619 0-41.021 18.402-41.021 41.021v6.736h-19.43c-5.522 0-10 4.477-10 10s4.478 10 10 10h336.543c5.522 0 10-4.477 10-10s-4.478-10-10-10h-19.43v-6.737c0-22.619-18.401-41.021-41.021-41.021h-16.97c2.979-5.406 4.697-11.599 4.757-18.181h15.077c36.407 0 66.026-29.619 66.026-66.026v-75.681h30.146c17.45 0 31.647-14.197 31.647-31.647.004-17.45-14.193-31.647-31.644-31.647zm-91.504-81.783c5.454-16.393 6.905-33.374 4.198-49.109-.822-4.777-.319-9.726 1.454-14.312 4.871-12.6 18.905-19.767 31.959-16.315 7.314 1.935 13.313 6.644 16.888 13.259 3.579 6.622 4.243 14.201 1.867 21.34-1.356 4.08-3.582 7.667-6.614 10.659-12.266 12.108-21.016 25.853-26.005 40.853l-9.559 28.73h-25.867zm-322.212 125.077c-6.423 0-11.647-5.225-11.647-11.647s5.225-11.647 11.647-11.647h30.146v23.294zm131.248 161.351c0-10.597 10.632-23.655 18.563-31.627 7.921 7.916 18.51 20.901 18.51 31.627 0 10.221-8.315 18.537-18.537 18.537-10.221 0-18.536-8.316-18.536-18.537zm75.61 18.537c-10.222 0-18.537-8.316-18.537-18.537 0-10.596 10.633-23.655 18.564-31.628 7.921 7.916 18.51 20.902 18.51 31.628 0 10.221-8.315 18.537-18.537 18.537zm128.842 41.021v6.737h-257.684v-6.737c0-11.591 9.43-21.021 21.021-21.021h215.643c11.59 0 21.02 9.43 21.02 21.021zm-90.305-59.558c0-10.596 10.633-23.655 18.564-31.627 7.921 7.916 18.509 20.902 18.509 31.627 0 10.221-8.315 18.537-18.536 18.537s-18.537-8.316-18.537-18.537zm118.175-65.669c0 25.379-20.647 46.026-46.026 46.026h-19.994c-8.41-17.588-24.885-31.332-27.327-33.307-3.677-2.976-8.938-2.967-12.604.02-2.007 1.635-13.505 11.276-22.199 24.42-8.707-13.184-20.258-22.811-22.271-24.439-3.677-2.976-8.938-2.967-12.604.02-2.007 1.635-13.505 11.276-22.199 24.42-8.707-13.184-20.258-22.811-22.271-24.439-3.677-2.976-8.938-2.967-12.604.02-2.436 1.984-18.856 15.764-27.271 33.287h-20.026c-25.379 0-46.026-20.647-46.026-46.026v-118.978h116.506c5.522 0 10-4.477 10-10s-4.478-10-10-10h-116.508v-26.678h313.424v26.678h-106.506c-5.522 0-10 4.477-10 10s4.478 10 10 10h106.506zm50.146-95.682h-30.146v-23.294h30.146c6.423 0 11.647 5.225 11.647 11.647s-5.224 11.647-11.647 11.647z"/><path d="m123.177 162.102c-22.546 0-40.889-18.342-40.889-40.888s18.343-40.888 40.889-40.888 40.888 18.342 40.888 40.888-18.342 40.888-40.888 40.888zm0-61.775c-11.518 0-20.889 9.37-20.889 20.888s9.371 20.888 20.889 20.888 20.888-9.37 20.888-20.888-9.371-20.888-20.888-20.888z"/><path d="m264.293 139.981c-7.869 0-13.435-.864-14.033-.961-4.25-.689-7.581-4.021-8.271-8.271-.265-1.632-6.236-40.222 15.184-61.642 21.422-21.42 60.01-15.448 61.642-15.184 4.25.689 7.581 4.021 8.271 8.271.265 1.632 6.236 40.222-15.184 61.642-13.566 13.566-34.019 16.145-47.609 16.145zm-3.234-20.029c10.88.394 27.567-1.124 36.7-10.257 9.645-9.644 10.583-26.81 10.21-36.703-10.889-.384-27.533 1.139-36.653 10.259-9.132 9.13-10.652 25.809-10.257 36.701z"/><path d="m199.249 112.424c-2.051 0-4.102-.629-5.848-1.888-1.342-.967-32.852-24.032-32.852-54.324s31.51-53.356 32.852-54.324c3.49-2.518 8.203-2.518 11.695 0 1.342.967 32.851 24.032 32.851 54.324s-31.509 53.356-32.851 54.324c-1.745 1.258-3.796 1.888-5.847 1.888zm-.035-89.384c-7.97 7.421-18.664 20.274-18.664 33.172 0 12.914 10.719 25.781 18.7 33.204 7.974-7.416 18.697-20.288 18.697-33.204 0-13.639-11.473-26.44-18.733-33.172z"/></g></g></svg>